<svg width="16" height="15" viewBox="0 0 16 15" fill="none" xmlns="http://www.w3.org/2000/svg">
<path fill-rule="evenodd" clip-rule="evenodd" d="M16.0013 7.99912C16.0013 8.26433 15.896 8.51867 15.7085 8.7062C15.5209 8.89374 15.2666 8.99909 15.0014 8.99909H3.41569L7.70958 13.291C7.80255 13.3839 7.8763 13.4943 7.92662 13.6158C7.97693 13.7373 8.00283 13.8675 8.00283 13.999C8.00283 14.1304 7.97693 14.2606 7.92662 14.3821C7.8763 14.5036 7.80255 14.614 7.70958 14.7069C7.6166 14.7999 7.50623 14.8737 7.38475 14.924C7.26328 14.9743 7.13308 15.0002 7.0016 15.0002C6.87011 15.0002 6.73991 14.9743 6.61844 14.924C6.49696 14.8737 6.38659 14.7999 6.29361 14.7069L0.293779 8.7071C0.200655 8.61421 0.126772 8.50386 0.07636 8.38237C0.0259485 8.26089 0 8.13065 0 7.99912C0 7.86759 0.0259485 7.73735 0.07636 7.61586C0.126772 7.49437 0.200655 7.38403 0.293779 7.29114L6.29361 1.2913C6.48138 1.10353 6.73605 0.998047 7.0016 0.998047C7.26714 0.998047 7.52181 1.10353 7.70958 1.2913C7.89734 1.47907 8.00283 1.73374 8.00283 1.99928C8.00283 2.26483 7.89734 2.5195 7.70958 2.70726L3.41569 6.99914H15.0014C15.2666 6.99914 15.5209 7.1045 15.7085 7.29203C15.896 7.47956 16.0013 7.73391 16.0013 7.99912Z" fill="#FF4D6D"/>
</svg>
