<svg width="16" height="15" viewBox="0 0 16 15" fill="none" xmlns="http://www.w3.org/2000/svg">
<path fill-rule="evenodd" clip-rule="evenodd" d="M-0.00134659 7.99912C-0.00134659 8.26433 0.104007 8.51867 0.291538 8.7062C0.479069 8.89374 0.733417 8.99909 0.998626 8.99909H12.5843L8.29042 13.291C8.19745 13.3839 8.1237 13.4943 8.07338 13.6158C8.02307 13.7373 7.99717 13.8675 7.99717 13.999C7.99717 14.1304 8.02307 14.2606 8.07338 14.3821C8.1237 14.5036 8.19745 14.614 8.29042 14.7069C8.3834 14.7999 8.49377 14.8737 8.61525 14.924C8.73672 14.9743 8.86692 15.0002 8.9984 15.0002C9.12989 15.0002 9.26009 14.9743 9.38156 14.924C9.50304 14.8737 9.61341 14.7999 9.70639 14.7069L15.7062 8.7071C15.7993 8.61421 15.8732 8.50386 15.9236 8.38237C15.9741 8.26089 16 8.13065 16 7.99912C16 7.86759 15.9741 7.73735 15.9236 7.61586C15.8732 7.49437 15.7993 7.38403 15.7062 7.29114L9.70639 1.2913C9.51862 1.10353 9.26395 0.998047 8.9984 0.998047C8.73286 0.998047 8.47819 1.10353 8.29042 1.2913C8.10266 1.47907 7.99717 1.73374 7.99717 1.99928C7.99717 2.26483 8.10266 2.5195 8.29042 2.70726L12.5843 6.99914H0.998626C0.733417 6.99914 0.479069 7.1045 0.291538 7.29203C0.104007 7.47956 -0.00134659 7.73391 -0.00134659 7.99912Z" fill="#FF4D6D"/>
</svg>
