<svg width="84" height="84" viewBox="0 0 84 84" fill="none" xmlns="http://www.w3.org/2000/svg">
<path fill-rule="evenodd" clip-rule="evenodd" d="M41.9997 6.58398C22.4705 6.58398 6.58301 22.4715 6.58301 42.0007C6.58301 61.5298 22.4705 77.4173 41.9997 77.4173C61.5288 77.4173 77.4163 61.5298 77.4163 42.0007C77.4163 22.4715 61.5288 6.58398 41.9997 6.58398ZM41.9997 83.6673C19.0247 83.6673 0.333008 64.9757 0.333008 42.0007C0.333008 19.0257 19.0247 0.333984 41.9997 0.333984C64.9747 0.333984 83.6664 19.0257 83.6664 42.0007C83.6664 64.9757 64.9747 83.6673 41.9997 83.6673Z" fill="#FFA99E"/>
<path fill-rule="evenodd" clip-rule="evenodd" d="M41.9746 47.7211C40.2496 47.7211 38.8496 46.3211 38.8496 44.5961V26.1836C38.8496 24.4586 40.2496 23.0586 41.9746 23.0586C43.6996 23.0586 45.0996 24.4586 45.0996 26.1836V44.5961C45.0996 46.3211 43.6996 47.7211 41.9746 47.7211Z" fill="#FFA99E"/>
<path fill-rule="evenodd" clip-rule="evenodd" d="M42.0156 61.9837C39.7115 61.9837 37.8281 60.1212 37.8281 57.8171C37.8281 55.5129 39.674 53.6504 41.974 53.6504H42.0156C44.3198 53.6504 46.1823 55.5129 46.1823 57.8171C46.1823 60.1212 44.3198 61.9837 42.0156 61.9837Z" fill="#FFA99E"/>
</svg>
