<svg xmlns="http://www.w3.org/2000/svg" version="1.1" xmlns:xlink="http://www.w3.org/1999/xlink" xmlns:svgjs="http://svgjs.dev/svgjs" width="2000" height="1247" viewBox="0 0 2000 1247"><g transform="matrix(1,0,0,1,-1.2121212121212466,244.4331020324703)"><svg viewBox="0 0 396 247" data-background-color="#102e44" preserveAspectRatio="xMidYMid meet" height="1247" width="2000" xmlns="http://www.w3.org/2000/svg" xmlns:xlink="http://www.w3.org/1999/xlink"><g id="tight-bounds" transform="matrix(1,0,0,1,0.2400000000000091,-0.09999999999999432)"><svg viewBox="0 0 395.52 247.2" height="247.2" width="395.52"><g><svg></svg></g><g><svg viewBox="0 0 395.52 247.2" height="247.2" width="395.52"><g transform="matrix(1,0,0,1,75.54432,51.92059924415538)"><svg viewBox="0 0 244.43135999999998 143.35880151168922" height="143.35880151168922" width="244.43135999999998"><g><svg viewBox="0 0 244.43135999999998 143.35880151168922" height="143.35880151168922" width="244.43135999999998"><g><svg viewBox="0 0 244.43135999999998 143.35880151168922" height="143.35880151168922" width="244.43135999999998"><g transform="matrix(1,0,0,1,0,80.88432074609032)"><svg viewBox="0 0 244.43135999999998 62.4744807655989" height="62.4744807655989" width="244.43135999999998"><g><svg viewBox="0 0 244.43135999999998 62.4744807655989" height="62.4744807655989" width="244.43135999999998"><g><svg viewBox="0 0 244.43135999999998 35.417898257293906" height="35.417898257293906" width="244.43135999999998"><g transform="matrix(1,0,0,1,0,0)"><svg width="244.43135999999998" viewBox="1.75 -36.599998474121094 255.33999633789062 37" height="35.417898257293906" data-palette-color="#ffffff"><path d="M1.75 0L26.7 0 26.7-7.7 24.2-7.7 24.2-2.5 7.6-2.5 7.6-32.5 11.75-32.5 11.75-35 1.75-35 1.75-32.5 5-32.5 5-2.5 1.75-2.5 1.75 0ZM30.2 0L40.2 0 40.2-2.5 36.75-2.5Q38.25-6 39.35-8.6 40.45-11.2 41.95-14.75L41.95-14.75 55.25-14.75Q56.55-11.65 57.82-8.6 59.1-5.55 60.4-2.5L60.4-2.5 57-2.5 57 0 67 0 67-2.5 63.05-2.5Q59.45-11.1 55.82-19.55 52.2-28 48.6-36.6L48.6-36.6Q45-28 41.37-19.55 37.75-11.1 34.1-2.5L34.1-2.5 30.2-2.5 30.2 0ZM48.1-29.35L48.1-29.35Q48.2-29.65 48.32-29.98 48.45-30.3 48.55-30.8L48.55-30.8 49.05-29.35 54.15-17.2 43-17.2Q44.25-20.15 45.55-23.23 46.85-26.3 48.1-29.35ZM70.5 0L81.05 0 81.05-2.5 76.5-2.5 76.5-16.4 92.9-16.4 92.9-18.9 76.5-18.9 76.5-32.5 92.34-32.5 92.34-27.3 94.84-27.3 94.84-35 70.5-35 70.5-32.5 73.9-32.5 73.9-2.5 70.5-2.5 70.5 0ZM128.84-4.85L128.84-4.85Q131.29-7.25 132.72-10.5 134.14-13.75 134.14-17.45L134.14-17.45Q134.14-21.15 132.72-24.43 131.29-27.7 128.84-30.1L128.84-30.1Q126.44-32.55 123.17-33.98 119.89-35.4 116.19-35.4L116.19-35.4Q112.49-35.4 109.24-33.98 105.99-32.55 103.59-30.1L103.59-30.1Q101.14-27.7 99.74-24.43 98.34-21.15 98.34-17.45L98.34-17.45Q98.34-13.75 99.74-10.5 101.14-7.25 103.59-4.85L103.59-4.85Q105.99-2.4 109.24-1 112.49 0.4 116.19 0.4L116.19 0.4Q119.89 0.4 123.17-1 126.44-2.4 128.84-4.85ZM105.44-6.6L105.44-6.6Q103.34-8.65 102.14-11.45 100.94-14.25 100.94-17.45L100.94-17.45Q100.94-20.6 102.14-23.43 103.34-26.25 105.44-28.35L105.44-28.35Q107.49-30.45 110.27-31.68 113.04-32.9 116.24-32.9L116.24-32.9Q119.39-32.9 122.17-31.68 124.94-30.45 127.04-28.35L127.04-28.35Q129.14-26.25 130.34-23.45 131.54-20.65 131.54-17.45L131.54-17.45Q131.54-14.25 130.32-11.45 129.09-8.65 127.04-6.6L127.04-6.6Q124.94-4.5 122.12-3.3 119.29-2.1 116.14-2.1L116.14-2.1Q112.99-2.1 110.24-3.3 107.49-4.5 105.44-6.6ZM137.64 0L148.19 0 148.19-2.5 144.39-2.5 144.39-27.45Q144.39-27.9 144.34-28.38 144.29-28.85 144.24-29.3L144.24-29.3Q144.54-28.85 144.74-28.6 144.94-28.35 145.24-27.95L145.24-27.95 160.09-8.55 174.44-27.3Q174.84-27.85 175.17-28.3 175.49-28.75 175.89-29.3L175.89-29.3Q175.84-28.75 175.82-28.38 175.79-28 175.79-27.45L175.79-27.45 175.79-2.5 172.04-2.5 172.04 0 182.59 0 182.59-2.5 178.39-2.5 178.39-32.5 182.49-32.5 182.49-35 177.14-35Q172.84-29.45 168.62-23.88 164.39-18.3 160.09-12.75L160.09-12.75Q156.19-17.75 151.77-23.53 147.34-29.3 142.99-35L142.99-35 137.64-35 137.64-32.5 141.79-32.5 141.79-2.5 137.64-2.5 137.64 0ZM210.49-2.6L210.49-2.6Q212.09-4.05 213.01-6.25 213.94-8.45 213.94-11.3L213.94-11.3 213.94-32.5 217.79-32.5 217.79-35 207.24-35 207.24-32.5 211.34-32.5 211.34-11.45Q211.34-9.2 210.64-7.45 209.94-5.7 208.69-4.5L208.69-4.5Q207.44-3.3 205.69-2.7 203.94-2.1 201.94-2.1L201.94-2.1Q199.89-2.1 198.16-2.7 196.44-3.3 195.19-4.5L195.19-4.5Q193.94-5.7 193.24-7.45 192.54-9.2 192.54-11.45L192.54-11.45 192.54-32.5 196.64-32.5 196.64-35 186.09-35 186.09-32.5 189.94-32.5 189.94-11.3Q189.94-8.45 190.84-6.25 191.74-4.05 193.34-2.6L193.34-2.6Q194.94-1.1 197.16-0.35 199.39 0.4 201.94 0.4L201.94 0.4Q204.49 0.4 206.69-0.35 208.89-1.1 210.49-2.6ZM251.79-4.85L251.79-4.85Q254.24-7.25 255.66-10.5 257.09-13.75 257.09-17.45L257.09-17.45Q257.09-21.15 255.66-24.43 254.24-27.7 251.79-30.1L251.79-30.1Q249.39-32.55 246.11-33.98 242.84-35.4 239.14-35.4L239.14-35.4Q235.44-35.4 232.19-33.98 228.94-32.55 226.54-30.1L226.54-30.1Q224.09-27.7 222.69-24.43 221.29-21.15 221.29-17.45L221.29-17.45Q221.29-13.75 222.69-10.5 224.09-7.25 226.54-4.85L226.54-4.85Q228.94-2.4 232.19-1 235.44 0.4 239.14 0.4L239.14 0.4Q242.84 0.4 246.11-1 249.39-2.4 251.79-4.85ZM228.39-6.6L228.39-6.6Q226.29-8.65 225.09-11.45 223.89-14.25 223.89-17.45L223.89-17.45Q223.89-20.6 225.09-23.43 226.29-26.25 228.39-28.35L228.39-28.35Q230.44-30.45 233.21-31.68 235.99-32.9 239.19-32.9L239.19-32.9Q242.34-32.9 245.11-31.68 247.89-30.45 249.99-28.35L249.99-28.35Q252.09-26.25 253.29-23.45 254.49-20.65 254.49-17.45L254.49-17.45Q254.49-14.25 253.26-11.45 252.04-8.65 249.99-6.6L249.99-6.6Q247.89-4.5 245.06-3.3 242.24-2.1 239.09-2.1L239.09-2.1Q235.94-2.1 233.19-3.3 230.44-4.5 228.39-6.6Z" opacity="1" transform="matrix(1,0,0,1,0,0)" fill="#ffffff" class="undefined-text-0" data-fill-palette-color="primary" id="text-0"></path></svg></g></svg></g><g transform="matrix(1,0,0,1,0,40.58621964259126)"><svg viewBox="0 0 244.43135999999998 21.888261123007634" height="21.888261123007634" width="244.43135999999998"><g transform="matrix(1,0,0,1,0,0)"><svg width="244.43135999999998" viewBox="2.200000047683716 -32.400001525878906 443.8999938964844 39.75" height="21.888261123007634" data-palette-color="#ffffff"><path d="M25.3-16.2L25.3-16.2Q25.3 0 12.5 0L12.5 0 2.2 0 2.2-31.05 12.7-31.05Q19.55-31.05 22.43-27.23 25.3-23.4 25.3-16.2ZM12.35-7.2Q15-7.2 15.78-9.08 16.55-10.95 16.55-15.38 16.55-19.8 15.73-21.65 14.9-23.5 12.2-23.5L12.2-23.5 10.7-23.5 10.7-7.2 12.35-7.2ZM39.97-17.4L39.97-17.4Q38.67-17.4 38.27-16.53 37.87-15.65 37.87-13.85L37.87-13.85 42.22-13.85 42.22-15.05Q42.22-17.4 39.97-17.4ZM40.17-24.55L40.17-24.55Q45.32-24.55 47.55-22.08 49.77-19.6 49.77-15L49.77-15Q49.77-14.4 49.42-9.6L49.42-9.6 38.02-9.6Q38.02-5.85 41.47-5.85L41.47-5.85Q43.12-5.85 47.92-7L47.92-7 48.62-0.8Q44.42 0.5 40.22 0.5L40.22 0.5Q35.07 0.5 32.32-2.88 29.57-6.25 29.57-12.05L29.57-12.05Q29.57-24.55 40.17-24.55ZM74.04-21.75L74.54-22.2Q77.29-24.55 80.59-24.55 83.89-24.55 85.22-23.03 86.54-21.5 86.54-18.45L86.54-18.45 86.54 0 78.04 0 78.04-15.6Q78.04-16.85 76.94-16.85L76.94-16.85Q75.54-16.85 74.59-16.15L74.59-16.15 74.59 0 66.09 0 66.09-15.6Q66.09-16.85 64.99-16.85L64.99-16.85Q63.59-16.85 62.64-16.15L62.64-16.15 62.64 0 54.24 0 54.24-23.95 61.89-23.95 62.39-22.2 62.59-22.2Q65.34-24.55 69.12-24.55 72.89-24.55 74.04-21.75L74.04-21.75ZM91.32-12.08Q91.32-18.65 93.84-21.6 96.37-24.55 101.74-24.55 107.12-24.55 109.57-21.65 112.02-18.75 112.02-12.13 112.02-5.5 109.62-2.5 107.22 0.5 101.77 0.5 96.32 0.5 93.82-2.5 91.32-5.5 91.32-12.08ZM103.34-16.8Q103.02-17.8 101.72-17.8 100.42-17.8 100.07-16.8 99.72-15.8 99.72-12.6L99.72-12.6 99.72-11.4Q99.72-7.85 100.07-6.8 100.42-5.75 101.69-5.75 102.97-5.75 103.32-6.8 103.67-7.85 103.67-11.1L103.67-11.1 103.67-12.55Q103.67-15.8 103.34-16.8ZM127.26-17.25Q125.79-17.25 125.29-15.93 124.79-14.6 124.79-11.8 124.79-9 125.26-7.75 125.74-6.5 127.26-6.5 128.79-6.5 131.24-7.05L131.24-7.05 132.14-0.65Q128.69 0.5 125.99 0.5L125.99 0.5Q121.24 0.5 118.81-2.7 116.39-5.9 116.39-11.65 116.39-17.4 118.89-20.98 121.39-24.55 126.14-24.55L126.14-24.55Q129.69-24.55 132.54-23.35L132.54-23.35 131.64-16Q128.74-17.25 127.26-17.25ZM144.51-13.45L144.51-13.45 144.51 0 136.21 0 136.21-23.95 143.51-23.95 144.01-22.5 144.21-22.5Q145.36-23.8 146.54-24.18 147.71-24.55 150.36-24.55L150.36-24.55 150.01-16.55 147.71-16.55Q145.76-16.55 145.14-15.95 144.51-15.35 144.51-13.45ZM162.48-23.7L162.48 0 154.23 0 154.23-23.7 162.48-23.7ZM154.88-25.6Q153.83-26.5 153.83-28.5 153.83-30.5 154.88-31.45 155.93-32.4 158.33-32.4 160.73-32.4 161.78-31.45 162.83-30.5 162.83-28.53 162.83-26.55 161.78-25.63 160.73-24.7 158.33-24.7 155.93-24.7 154.88-25.6ZM181.56-6.6L181.31 0.05Q177.61 0.5 174.88 0.5 172.16 0.5 170.63-0.93 169.11-2.35 169.11-5.85L169.11-5.85 169.11-17.45 166.71-17.45 166.71-23.65 169.51-23.65 169.96-28.25 177.51-28.25 177.51-23.65 181.96-23.65 181.61-17.45 177.46-17.45 177.46-7.5Q177.46-6.45 178.46-6.45L178.46-6.45Q178.56-6.45 181.56-6.6L181.56-6.6ZM194.28-23.7L194.28 0 186.03 0 186.03-23.7 194.28-23.7ZM186.68-25.6Q185.63-26.5 185.63-28.5 185.63-30.5 186.68-31.45 187.73-32.4 190.13-32.4 192.53-32.4 193.58-31.45 194.63-30.5 194.63-28.53 194.63-26.55 193.58-25.63 192.53-24.7 190.13-24.7 187.73-24.7 186.68-25.6ZM217.15-6.9L217.15 0 199.2 0 199-4.8 206.4-16.95 198.7-16.95 198.7-23.95 216.65-23.95 216.95-19.5 209.8-6.9 217.15-6.9ZM231.42-17.4L231.42-17.4Q230.12-17.4 229.72-16.53 229.32-15.65 229.32-13.85L229.32-13.85 233.67-13.85 233.67-15.05Q233.67-17.4 231.42-17.4ZM231.62-24.55L231.62-24.55Q236.77-24.55 239-22.08 241.22-19.6 241.22-15L241.22-15Q241.22-14.4 240.87-9.6L240.87-9.6 229.47-9.6Q229.47-5.85 232.92-5.85L232.92-5.85Q234.57-5.85 239.37-7L239.37-7 240.07-0.8Q235.87 0.5 231.67 0.5L231.67 0.5Q226.52 0.5 223.77-2.88 221.02-6.25 221.02-12.05L221.02-12.05Q221.02-24.55 231.62-24.55ZM268.07-31.05L268.07 0 259.57 0 259.57-31.05 268.07-31.05ZM282.59-22.2L282.79-22.2Q285.54-24.55 288.84-24.55 292.14-24.55 293.47-23.03 294.79-21.5 294.79-18.45L294.79-18.45 294.79 0 286.29 0 286.29-15.6Q286.29-16.85 285.19-16.85L285.19-16.85Q283.79-16.85 282.84-16.15L282.84-16.15 282.84 0 274.44 0 274.44-23.95 282.09-23.95 282.59-22.2ZM312.36-23.95L320.51-23.95 315.41 0 303.61 0 298.46-23.95 307.26-23.95 309.41-8.6 310.06-8.6 312.36-23.95ZM334.19-17.4L334.19-17.4Q332.89-17.4 332.49-16.53 332.09-15.65 332.09-13.85L332.09-13.85 336.44-13.85 336.44-15.05Q336.44-17.4 334.19-17.4ZM334.39-24.55L334.39-24.55Q339.54-24.55 341.76-22.08 343.99-19.6 343.99-15L343.99-15Q343.99-14.4 343.64-9.6L343.64-9.6 332.24-9.6Q332.24-5.85 335.69-5.85L335.69-5.85Q337.34-5.85 342.14-7L342.14-7 342.84-0.8Q338.64 0.5 334.44 0.5L334.44 0.5Q329.29 0.5 326.54-2.88 323.79-6.25 323.79-12.05L323.79-12.05Q323.79-24.55 334.39-24.55ZM347.16-16.88Q347.16-20.5 349.38-22.53 351.61-24.55 355.51-24.55 359.41-24.55 363.41-23.55L363.41-23.55 362.56-16.6Q357.46-17.75 355.71-17.75L355.71-17.75Q354.66-17.75 354.66-16.9L354.66-16.9Q354.66-16.35 355.81-15.9L355.81-15.9Q359.81-14.45 361.83-12.6 363.86-10.75 363.86-7.05 363.86-3.35 361.96-1.43 360.06 0.5 356.13 0.5 352.21 0.5 348.31-0.5L348.31-0.5 348.86-7.25Q353.86-5.9 355.33-5.9 356.81-5.9 356.81-6.6 356.81-7.3 355.71-7.7L355.71-7.7Q351.26-9.4 349.21-11.33 347.16-13.25 347.16-16.88ZM381.48-6.6L381.23 0.05Q377.53 0.5 374.81 0.5 372.08 0.5 370.56-0.93 369.03-2.35 369.03-5.85L369.03-5.85 369.03-17.45 366.63-17.45 366.63-23.65 369.43-23.65 369.88-28.25 377.43-28.25 377.43-23.65 381.88-23.65 381.53-17.45 377.38-17.45 377.38-7.5Q377.38-6.45 378.38-6.45L378.38-6.45Q378.48-6.45 381.48-6.6L381.48-6.6ZM394.2-23.7L394.2 0 385.95 0 385.95-23.7 394.2-23.7ZM386.6-25.6Q385.55-26.5 385.55-28.5 385.55-30.5 386.6-31.45 387.65-32.4 390.05-32.4 392.45-32.4 393.5-31.45 394.55-30.5 394.55-28.53 394.55-26.55 393.5-25.63 392.45-24.7 390.05-24.7 387.65-24.7 386.6-25.6ZM407.68-22.2L407.88-22.2Q410.63-24.55 413.93-24.55 417.23-24.55 418.55-23.03 419.88-21.5 419.88-18.45L419.88-18.45 419.88 0 411.38 0 411.38-15.6Q411.38-16.85 410.28-16.85L410.28-16.85Q408.88-16.85 407.93-16.15L407.93-16.15 407.93 0 399.53 0 399.53-23.95 407.18-23.95 407.68-22.2ZM432.3 2.2L432.3 2.2 437.45 2.2Q438.35 2.2 438.35 1.4L438.35 1.4 438.35 1.2Q438.35 0.45 437.45 0.45L437.45 0.45 432.3 0.45Q431.5 0.45 431.5 1.25L431.5 1.25 431.5 1.45Q431.5 2.2 432.3 2.2ZM434.3-24.55L434.3-24.55 446.1-24.55 446.1-18.95 442.5-18.95 442.5-18.7Q444.1-17.3 444.1-15.05L444.1-15.05Q444.1-7.05 435.05-7.05L435.05-7.05 432.65-7.05Q431.75-7.05 431.75-6.23 431.75-5.4 432.6-5.4L432.6-5.4 439.4-5.4Q445.15-5.4 445.15-0.4L445.15-0.4Q445.15 3.7 442.4 5.53 439.65 7.35 434.8 7.35 429.95 7.35 427.47 6.33 425 5.3 425 2.5L425 2.5Q425 0.95 426.95-0.1L426.95-0.1 426.95-0.3Q424.5-1.65 424.5-4.2L424.5-4.2Q424.5-7.2 428.35-8.75L428.35-8.75Q426.55-10.05 425.67-11.78 424.8-13.5 424.8-16.35L424.8-16.35Q424.8-20.3 427.37-22.43 429.95-24.55 434.3-24.55ZM436.5-14.95Q436.5-16.55 436.12-17.28 435.75-18 434.75-18 433.75-18 433.37-17.28 433-16.55 433-15.05L433-15.05Q433-12 434.8-12L434.8-12Q436.5-12 436.5-14.95L436.5-14.95Z" opacity="1" transform="matrix(1,0,0,1,0,0)" fill="#ffffff" class="undefined-text-1" data-fill-palette-color="secondary" id="text-1"></path></svg></g></svg></g></svg></g></svg></g><g transform="matrix(1,0,0,1,46.68638976,0)"><svg viewBox="0 0 151.05858048 75.71599936079296" height="75.71599936079296" width="151.05858048"><g><svg xmlns="http://www.w3.org/2000/svg" xmlns:xlink="http://www.w3.org/1999/xlink" xml:space="preserve" style="shape-rendering:geometricPrecision;text-rendering:geometricPrecision;image-rendering:optimizeQuality;" viewBox="0.0000020265579223632812 0.0000027120113372802734 14.727499008178711 7.38195276260376" x="0" y="0" fill-rule="evenodd" clip-rule="evenodd" width="151.05858048" height="75.71599936079296" class="icon-icon-0" data-fill-palette-color="accent" id="icon-0"><g fill="#b2fcfb" data-fill-palette-color="accent"><path class="" d="M1.757 3.091c-0.313 0.444-0.296 1.331-0.417 1.95-0.153 0.784-0.711 1.203-1.34 1.534 0.188-0.771 0.348-1.542 0.412-2.313 0.078-0.953-0.06-0.891 0.767-1.575 1.159-0.961 3.04-1.741 5.848-2.29 2.456-0.406 5.049-0.453 7.701-0.351-0.89 1.809-3.733 1.961-7.203 1.581-1.811 0.02-3.495-0.488-5.768 1.464z m8.33 2.781c-3.895 2.038-7.803-2.284-9.165 0.688 2.104-1.831 5.079 3.183 9.165-0.688z m2.489-2.547c-4.49 2.72-9.502-0.792-10.907 1.859 3.412-1.235 7.765 2.753 10.907-1.859z m0.834-1.478c-3.944 1.761-10.043-1.402-11.565 2.239 3.106-1.808 8.446 1.438 11.565-2.239z" fill="#b2fcfb" data-fill-palette-color="accent"></path></g></svg></g></svg></g><g></g></svg></g></svg></g></svg></g><g><path d="M102.728 46.752A122.216 122.216 0 0 1 292.792 46.752L290.818 46.752A120.241 120.241 0 0 0 104.702 46.752L102.728 46.752M102.728 200.448A122.216 122.216 0 0 0 292.792 200.448L290.818 200.448A120.241 120.241 0 0 1 104.702 200.448L102.728 200.448" fill="#ffffff" stroke="transparent" data-fill-palette-color="tertiary"></path></g></svg></g><defs></defs></svg><rect width="395.52" height="247.2" fill="none" stroke="none" visibility="hidden"></rect></g></svg></g></svg>